<svg version="1.1" id="Layer_1" xmlns="http://www.w3.org/2000/svg" xmlns:xlink="http://www.w3.org/1999/xlink" x="0px" y="0px"
	 width="100%" viewBox="0 0 1024 1024" enable-background="new 0 0 1024 1024" xml:space="preserve">
<path fill="#000000" opacity="1.000000" stroke="none" 
	d="
M217.698318,470.091736 
	C220.598419,448.646881 224.850891,428.019684 233.980347,408.699829 
	C235.118622,406.290985 234.234436,404.250763 233.304840,402.039764 
	C215.502838,359.697693 217.057480,318.084747 238.769379,277.572052 
	C244.803833,266.312225 253.484085,256.951691 264.517181,250.177490 
	C267.885895,248.109146 269.669708,245.480621 270.846893,241.744766 
	C282.636108,204.331665 301.556305,171.361465 331.443268,145.282837 
	C357.114166,122.883011 387.227631,109.337639 419.831421,100.704208 
	C455.845947,91.167625 492.549561,87.930923 529.626343,89.895828 
	C564.200378,91.728088 597.944519,97.897766 629.573120,112.916382 
	C681.492065,137.569733 715.540710,177.366318 731.163452,232.761246 
	C731.863159,235.242264 732.614319,237.540680 734.711121,239.153091 
	C754.822388,254.618347 765.189209,275.811127 769.603027,300.111755 
	C774.514343,327.151520 774.191711,354.035187 764.422241,380.198700 
	C761.137207,388.996399 756.626404,397.158234 750.654907,404.419647 
	C738.883240,418.734039 723.738525,426.449341 705.129211,426.698395 
	C700.142273,426.765167 697.134949,428.438416 695.119873,433.099579 
	C688.382568,448.683899 678.707153,462.381470 667.627686,475.186676 
	C662.357910,481.277283 662.767212,481.987854 669.573364,486.576385 
	C710.877319,514.422668 741.263000,550.968750 757.466370,598.443542 
	C764.357849,618.635193 765.625061,639.400208 760.655212,660.354370 
	C759.556580,664.986694 760.480103,666.012634 765.260071,665.964417 
	C776.233765,665.853638 787.215515,664.964172 798.167236,666.544373 
	C806.477295,667.743408 811.590088,672.553162 814.359741,680.267944 
	C824.029663,707.203430 833.584717,734.181458 843.466187,761.039368 
	C854.093567,789.924683 863.739990,819.174438 875.507019,847.636108 
	C876.312988,849.585571 876.329956,851.516235 876.331116,853.503601 
	C876.339294,867.502563 875.730286,881.533203 876.466064,895.493225 
	C877.664124,918.223572 862.640991,929.206726 842.431946,929.222168 
	C805.435120,929.250488 768.438232,929.233826 731.441406,929.233398 
	C550.458313,929.231384 369.475189,929.220520 188.492065,929.252014 
	C180.443390,929.253357 172.512527,928.989807 165.086731,925.356812 
	C154.958221,920.401611 149.875809,912.171875 149.698013,901.050903 
	C149.498245,888.554993 149.977890,876.042236 149.547165,863.557983 
	C149.196991,853.408386 150.929245,843.884033 154.219666,834.279907 
	C171.640915,783.429688 188.706299,732.457581 205.921982,681.536865 
	C209.611404,670.624207 216.392166,665.777954 228.055817,665.745911 
	C251.553879,665.681274 275.052155,665.704529 298.550262,665.660828 
	C305.445465,665.647949 306.669495,664.622009 307.526703,657.804016 
	C308.664978,648.750305 309.347961,639.628723 310.803467,630.629639 
	C311.655609,625.360840 309.421661,623.276428 304.862732,622.217102 
	C291.109009,619.021240 278.261719,613.749023 266.636810,605.598694 
	C242.466400,588.652527 227.760895,565.361450 220.722809,537.010437 
	C215.611633,516.421631 215.692535,495.513428 217.542358,474.540283 
	C217.659225,473.215240 217.639725,471.878204 217.698318,470.091736 
M328.794098,625.385986 
	C326.966248,627.135010 326.725677,629.524170 326.413269,631.794312 
	C325.282135,640.013367 324.252930,648.246765 323.236664,656.481140 
	C322.123138,665.503906 322.323181,665.700562 331.445190,665.700623 
	C405.434113,665.701233 479.423065,665.689148 553.411987,665.712769 
	C576.407776,665.720093 599.410400,665.539307 622.394226,666.096069 
	C627.822632,666.227539 630.803650,665.215637 632.425659,660.023132 
	C637.144043,644.917725 646.309753,632.393066 656.450745,620.638733 
	C659.733459,616.833740 660.344971,613.306519 659.453735,608.868591 
	C656.970276,596.502319 654.631165,584.106323 652.049377,571.760864 
	C651.128235,567.356201 652.821960,564.534851 656.674622,563.024048 
	C661.195251,561.251343 666.088867,564.037659 667.225281,569.308655 
	C669.148071,578.227051 670.780762,587.216309 672.230225,596.224854 
	C672.928528,600.565247 674.018799,603.333374 679.393433,602.413513 
	C682.418518,601.895813 684.616516,604.146912 685.756836,607.072693 
	C687.188782,610.746399 685.521912,613.662964 683.190063,616.144470 
	C678.971008,620.634460 674.406494,624.799927 670.189087,629.291382 
	C658.065796,642.202576 648.017456,656.312683 644.658936,674.236694 
	C642.971130,683.244385 646.457825,693.271057 652.836975,697.160461 
	C656.023865,690.400940 659.171570,683.626160 662.418701,676.899414 
	C663.356995,674.955627 664.520813,673.111328 665.686157,671.288513 
	C668.005676,667.660278 671.358643,666.373657 675.091064,668.539490 
	C678.642944,670.600525 679.048340,674.030090 677.296387,677.697083 
	C673.491150,685.661499 669.747314,693.639771 667.038330,702.081177 
	C665.925110,705.549927 666.968750,706.944336 670.320740,707.681519 
	C673.772278,708.440674 677.234375,708.479553 680.715637,708.723877 
	C684.915405,709.018555 687.232117,707.441528 688.253540,703.291931 
	C690.048950,695.997681 692.852783,689.036743 696.128296,682.286377 
	C698.081604,678.261047 701.733093,676.752319 705.078430,678.315430 
	C708.659729,679.988831 709.819763,683.370483 708.214600,687.505676 
	C707.010193,690.608582 705.611816,693.650085 704.631531,696.821472 
	C703.933655,699.079041 701.910767,701.816467 704.204285,703.784363 
	C706.276733,705.562683 708.606262,703.326904 710.583374,702.345520 
	C723.585083,695.892151 733.115417,685.931763 739.465454,672.954163 
	C750.736328,649.919922 749.925049,626.232666 742.343506,602.516724 
	C734.242920,577.177246 719.634155,555.562927 702.239685,535.739197 
	C686.945496,518.309082 669.633850,503.324921 648.654358,493.026764 
	C638.787598,488.183502 638.024902,481.872986 645.987549,474.224670 
	C662.018738,458.826355 674.926086,441.159302 682.854675,420.218750 
	C693.403381,392.357880 692.700867,363.838257 687.006226,335.195984 
	C683.455078,317.335144 677.549622,300.218445 669.191589,283.978058 
	C665.933533,277.647278 666.977417,274.253326 672.990479,270.651428 
	C677.188965,268.136444 680.866150,265.088226 683.688782,261.049927 
	C701.906921,234.985245 686.884033,197.285538 655.818542,190.228607 
	C637.559814,186.080872 618.711731,197.457031 612.398132,211.296478 
	C608.568481,219.691132 605.722656,221.193344 597.419617,217.307312 
	C568.816650,203.920380 538.644104,198.820511 507.252106,199.130905 
	C486.340973,199.337662 465.802521,201.602234 445.657379,207.321060 
	C431.656342,211.295700 418.383270,216.999725 405.424713,223.548035 
	C400.085907,226.245865 395.828247,224.955185 393.850800,220.080368 
	C388.600525,207.137207 377.859680,201.033142 365.449493,196.965149 
	C363.308685,196.263397 361.200806,196.318329 359.445801,198.145691 
	C346.576508,211.545837 337.279877,227.202576 330.191467,244.270065 
	C329.117004,246.857056 329.795959,248.426758 332.145935,250.075302 
	C342.786194,257.539673 350.456879,267.544373 355.481079,279.428314 
	C368.871796,311.101868 370.831238,343.876434 363.568634,377.207367 
	C359.437561,396.166595 351.667328,413.546295 337.939545,427.800049 
	C335.741028,430.082825 335.514252,452.229370 337.410950,454.836121 
	C337.606598,455.104950 337.848145,455.340240 338.046387,455.607422 
	C343.986359,463.612518 351.410461,469.967407 359.840302,475.201447 
	C363.378540,477.398315 366.997101,479.474091 370.453125,481.792694 
	C373.688171,483.963043 374.994171,487.158905 373.823517,490.911255 
	C372.570526,494.927399 369.563782,496.607635 365.361786,496.420410 
	C361.827820,496.263000 358.985413,494.481537 356.286102,492.589355 
	C351.108582,488.959991 346.134674,485.041412 341.033356,481.301392 
	C339.512756,480.186554 338.312073,478.259491 335.607483,478.928375 
	C334.552795,484.655975 336.222229,490.021179 337.940765,495.343475 
	C340.365784,502.853790 344.827911,508.842560 351.119904,513.713257 
	C355.877350,517.395996 356.558990,522.127747 353.713470,525.942078 
	C350.992889,529.588867 346.083923,529.810120 341.217438,526.612122 
	C336.955505,523.811340 333.571075,520.164368 330.904297,515.885010 
	C321.107941,500.164856 318.189148,482.801239 319.372528,464.660522 
	C320.445465,448.212280 321.851074,431.785309 318.587799,415.441772 
	C316.475861,404.864502 312.251587,395.386658 302.864746,389.170258 
	C296.985016,385.276428 295.750427,385.551910 290.937866,390.523743 
	C288.251709,393.298737 286.059906,396.429047 284.249054,399.826385 
	C280.223083,407.379669 277.621399,415.401764 276.168243,423.838165 
	C275.259369,429.114807 272.245941,431.284119 267.486359,430.469330 
	C263.266144,429.746857 261.756653,427.170380 262.414551,421.860107 
	C263.720917,411.315826 267.310944,401.525726 272.108429,392.113312 
	C272.945068,390.471893 274.700500,388.840820 272.953583,386.598969 
	C269.875305,386.533875 267.719391,388.469543 265.543823,390.187073 
	C259.684387,394.813019 255.293427,400.690491 252.053574,407.337128 
	C232.916214,446.597809 226.799469,488.052643 235.746140,530.594543 
	C244.292038,571.230774 269.427216,597.758545 310.833252,607.108643 
	C316.783813,608.452393 323.048157,608.348022 329.076019,609.424927 
	C334.796417,610.446960 336.827118,614.303833 335.126953,619.712708 
	C334.236298,622.546204 331.769989,623.704529 328.794098,625.385986 
M471.500061,681.317139 
	C391.501251,681.316284 311.502441,681.312317 231.503616,681.319397 
	C222.772858,681.320129 222.291153,681.651123 219.626770,689.558838 
	C203.685760,736.870361 187.761230,784.187439 171.829163,831.501953 
	C169.782761,837.579346 167.725113,843.652893 165.569305,850.034180 
	C396.913086,850.034180 627.618408,850.034180 858.345642,850.034180 
	C858.583801,847.198303 857.548340,845.264832 856.820557,843.255005 
	C845.030762,810.697754 833.222168,778.147339 821.461792,745.579407 
	C814.734497,726.949341 808.132812,708.273804 801.380127,689.652954 
	C798.576538,681.921814 797.658997,681.355774 789.876587,681.332520 
	C779.543579,681.301758 769.183960,681.748657 758.888855,681.120972 
	C753.979492,680.821655 751.637512,682.190857 749.207214,686.352051 
	C731.623657,716.458801 698.861328,730.426819 664.989868,722.188965 
	C646.500854,717.692200 633.514038,707.043579 630.477356,687.277405 
	C629.591125,681.508789 626.598938,681.100647 621.995483,681.113586 
	C572.163940,681.253418 522.331970,681.268982 471.500061,681.317139 
M165.251633,877.539124 
	C165.215469,884.704163 165.182343,891.869202 165.142227,899.034241 
	C165.104279,905.812500 168.328918,910.300415 174.700394,912.638306 
	C177.776031,913.766846 180.919434,913.624329 184.075134,913.624451 
	C315.220276,913.630615 446.365417,913.632996 577.510559,913.634888 
	C665.662720,913.636169 753.815186,913.541260 841.966797,913.754700 
	C853.153076,913.781738 862.164490,908.812988 861.086975,894.819641 
	C860.551331,887.863647 861.023499,880.830200 861.036865,873.831787 
	C861.052185,865.778992 860.749084,865.397339 852.587708,865.442749 
	C833.285828,865.550171 813.984436,865.866943 794.682800,865.870056 
	C771.222229,865.873901 747.761658,865.546509 724.301025,865.536682 
	C693.694275,865.523804 663.087341,865.754211 632.480530,865.749207 
	C588.686096,865.742004 544.891663,865.584778 501.097260,865.554565 
	C478.293793,865.538879 455.490295,865.695129 432.686768,865.705750 
	C410.554932,865.716003 388.422974,865.595459 366.291138,865.613281 
	C344.666656,865.630737 323.042175,865.826721 301.417847,865.803772 
	C280.111023,865.781189 258.804535,865.538208 237.497681,865.473572 
	C217.191162,865.411926 196.882812,865.602356 176.578186,865.395630 
	C165.136627,865.279175 165.139282,865.018555 165.251633,877.539124 
M388.154968,155.586792 
	C422.460541,136.026672 460.079437,129.421417 498.834778,127.779465 
	C519.960449,126.884430 541.023254,128.213303 561.969116,131.531342 
	C596.793396,137.047852 628.883484,148.891724 656.427979,171.468750 
	C659.962891,174.366165 663.707886,176.308090 667.972290,177.950607 
	C688.864319,185.997482 701.331543,201.452454 706.327881,223.115387 
	C706.805420,225.185791 707.393066,227.514709 710.025452,226.556122 
	C712.359375,225.706223 711.238220,223.460297 710.621765,221.800842 
	C697.634888,186.842255 675.054504,159.478699 643.900696,139.384491 
	C609.540161,117.222000 570.960876,108.662216 530.722839,106.421570 
	C509.780396,105.255402 488.849792,105.715729 467.973572,108.233017 
	C436.528809,112.024658 406.217529,119.617882 377.839447,134.063995 
	C335.307861,155.715057 307.724548,190.366669 290.736298,234.209320 
	C289.024811,238.626312 290.248749,240.089203 295.090698,239.488190 
	C299.961060,238.883682 304.804565,239.131638 309.435760,240.342239 
	C313.802551,241.483780 315.846191,240.510620 317.644623,236.203186 
	C332.029846,201.749283 354.904175,174.576828 388.154968,155.586792 
M557.321350,147.367371 
	C547.913635,146.370682 538.525574,144.834091 529.094055,144.490723 
	C509.972687,143.794571 490.853333,143.861130 471.782501,146.252502 
	C445.984192,149.487442 421.159607,155.831589 398.195251,168.313904 
	C390.988098,172.231354 383.803986,176.356964 378.060638,182.395401 
	C378.650909,183.133240 378.802551,183.484436 379.067352,183.630417 
	C388.434814,188.794861 397.539459,194.268051 403.935822,203.227219 
	C405.366821,205.231537 407.199127,204.168716 408.862030,203.359863 
	C414.856110,200.444199 421.009796,197.918091 427.321014,195.775742 
	C448.211243,188.684540 469.659119,184.849411 491.701172,183.415146 
	C512.081726,182.088974 532.187744,183.429108 552.291321,186.478653 
	C566.668701,188.659592 580.507385,192.749390 594.111877,197.728897 
	C597.185669,198.853973 600.027771,199.262909 602.210205,196.323730 
	C608.841064,187.393494 617.433777,181.101669 627.628235,176.788971 
	C630.837952,175.431122 631.080627,173.235352 627.987549,171.333588 
	C624.446106,169.156189 620.823303,167.092987 617.131897,165.180695 
	C598.603455,155.581955 578.630432,150.730682 557.321350,147.367371 
M240.695328,314.165527 
	C236.165268,334.410950 235.854263,354.680573 240.419357,374.962097 
	C242.056213,382.234253 245.326218,387.121582 253.607361,380.026062 
	C265.139557,370.144989 278.551575,365.559998 293.885529,368.980713 
	C297.349915,369.753571 298.379150,368.227448 298.737457,365.227020 
	C301.121887,345.259033 301.094330,325.478058 294.612854,306.120850 
	C289.322937,290.322266 276.844330,279.920868 262.665985,279.278992 
	C258.174286,279.075653 255.133331,280.445801 252.799469,284.399292 
	C247.424423,293.504395 243.406784,303.111145 240.695328,314.165527 
M351.670074,345.402008 
	C351.995728,328.306488 349.896362,311.542175 344.688416,295.222839 
	C339.485291,278.918671 331.050629,264.997467 314.557068,258.047577 
	C302.905975,253.138077 291.096710,252.421463 279.919067,260.039246 
	C275.964600,262.734253 275.867004,265.266602 280.232178,267.431549 
	C288.281799,271.423798 295.274384,276.537933 300.403168,284.085236 
	C310.483887,298.919617 313.981750,315.797485 315.192322,333.182465 
	C316.069641,345.781799 315.764648,358.456451 313.445282,370.987030 
	C313.067291,373.029358 312.298035,375.753754 314.231873,377.161896 
	C321.832642,382.696381 326.107147,391.715363 334.657379,396.626862 
	C338.735657,391.577698 344.255310,388.160828 346.060791,381.231689 
	C349.052979,369.748322 351.081207,358.195587 351.670074,345.402008 
M728.418884,255.095627 
	C724.425903,249.929245 717.993164,249.152451 712.661682,246.405502 
	C711.046082,245.573044 709.402405,246.351685 708.069214,247.490387 
	C705.969849,249.283508 702.772156,261.252686 703.707153,263.902618 
	C704.451355,266.011810 705.634644,267.565582 708.022156,268.283203 
	C714.868347,270.340912 721.316040,273.221039 727.065735,277.635345 
	C730.941284,280.610748 735.446350,280.676758 740.184204,279.464020 
	C740.577698,274.759064 736.522888,271.913849 736.028503,267.747009 
	C735.435669,262.750671 732.840637,258.736908 728.418884,255.095627 
z"/>
<path fill="#000000" opacity="1.000000" stroke="none" 
	d="
M853.234131,178.002701 
	C870.031311,174.332306 886.424622,170.775894 902.819275,167.225891 
	C910.633484,165.533829 914.333618,168.415939 914.340637,176.303726 
	C914.363098,201.466965 914.283691,226.630539 914.403931,251.793228 
	C914.427734,256.765442 912.911316,260.958069 909.706604,264.575439 
	C902.033325,273.236786 892.400146,276.707397 881.005554,274.768890 
	C874.655457,273.688507 869.535767,270.344299 868.054993,263.818481 
	C866.284058,256.013885 868.205933,248.876724 874.581970,243.515991 
	C880.801697,238.286591 888.091125,235.705978 896.199890,235.720032 
	C899.041260,235.724960 901.362793,235.338242 901.378540,231.963837 
	C901.446899,217.333099 901.407898,202.701859 901.407898,187.908005 
	C896.730347,186.843369 892.839111,188.712708 888.915344,189.542480 
	C877.539062,191.948227 866.272400,194.872330 854.895081,197.272659 
	C849.952026,198.315536 847.495300,200.309921 847.544128,205.868652 
	C847.721252,226.026810 847.399719,246.188858 847.404907,266.349426 
	C847.405823,270.008911 846.473267,273.205505 844.574646,276.249451 
	C839.097290,285.031067 825.583252,291.008545 815.453125,289.019867 
	C808.918518,287.737000 803.007385,285.075195 801.149292,278.146240 
	C799.303528,271.263123 800.525574,264.600464 805.525208,259.012970 
	C811.588806,252.236465 819.521240,249.347656 828.226135,249.083038 
	C833.816772,248.913116 834.773010,246.435669 834.716064,241.642151 
	C834.517883,224.980042 834.624146,208.314285 834.620361,191.649918 
	C834.618591,184.068161 836.140076,182.098129 843.594727,180.213531 
	C846.654358,179.440018 849.750977,178.812988 853.234131,178.002701 
z"/>
<path fill="#000000" opacity="1.000000" stroke="none" 
	d="
M211.344543,204.999512 
	C210.940414,212.280334 212.216171,219.130432 210.338699,225.855591 
	C205.693436,242.495102 181.054764,252.058075 166.420349,242.861710 
	C157.275864,237.115250 156.471313,222.909302 164.732468,213.898804 
	C171.847488,206.138397 181.043198,203.087112 191.147568,202.969162 
	C195.839813,202.914383 196.718185,201.103210 196.756577,197.055115 
	C196.949066,176.752228 197.362457,156.451538 197.621704,136.149094 
	C197.657639,133.334808 197.905121,130.714294 200.708740,129.335327 
	C203.492432,127.966141 206.791443,128.108368 208.662384,130.250900 
	C215.207245,137.745895 224.819275,139.918045 232.768723,144.919495 
	C244.436325,152.260269 249.385712,163.771729 246.147171,175.965073 
	C245.682755,177.713623 244.977142,179.456467 244.065674,181.016464 
	C241.758057,184.965881 237.613434,186.527908 233.831482,184.826965 
	C229.671066,182.955780 228.687988,179.379379 229.470993,175.249374 
	C231.497742,164.559204 224.665726,155.996735 212.659653,154.859985 
	C210.659882,171.368744 211.537811,187.953430 211.344543,204.999512 
z"/>
<path fill="#000000" opacity="1.000000" stroke="none" 
	d="
M577.542480,411.470154 
	C578.649719,409.777283 579.421753,408.267365 580.503174,407.027161 
	C583.037048,404.121155 586.381653,403.990784 589.667114,405.183868 
	C592.714050,406.290375 593.577942,408.969391 593.519592,412.072235 
	C593.439026,416.352081 591.315125,419.648010 588.669495,422.728241 
	C578.665894,434.375122 565.666199,440.599335 550.831238,443.235107 
	C535.315063,445.991913 520.095459,444.691284 505.175079,439.437256 
	C494.538757,435.691772 485.837311,429.186523 478.012634,421.320923 
	C475.982361,419.279999 474.600372,416.907135 474.586761,413.813141 
	C474.574066,410.924988 475.276550,408.580170 477.882690,407.040466 
	C480.770721,405.334229 483.673340,405.435333 486.316650,407.347839 
	C487.908600,408.499664 489.178741,410.107605 490.549103,411.552673 
	C500.932007,422.501526 513.937988,427.576508 528.737732,428.708771 
	C532.973022,429.032715 534.843140,427.190826 534.911682,422.947052 
	C535.011047,416.795319 535.287964,410.641968 535.673828,404.500916 
	C535.931396,400.402618 534.426575,397.868042 530.335144,396.781403 
	C527.120544,395.927673 524.048157,394.634583 521.226257,392.790314 
	C512.295166,386.953491 510.950897,374.408081 518.534424,366.854645 
	C522.810059,362.596008 528.131409,360.172089 533.988953,359.303345 
	C543.823364,357.844879 553.551086,357.837494 562.573059,363.072845 
	C574.396606,369.933868 574.565796,385.970734 562.731018,392.892883 
	C559.889465,394.554932 556.674255,395.603821 553.577515,396.795959 
	C550.998840,397.788696 549.363770,399.308441 549.366943,402.278137 
	C549.374329,409.105133 549.326294,415.932465 549.254700,422.759186 
	C549.213196,426.717102 551.540833,427.253845 554.552795,426.273376 
	C563.376343,423.401062 571.559387,419.451691 577.542480,411.470154 
z"/>
<path fill="#000000" opacity="1.000000" stroke="none" 
	d="
M433.026672,336.621826 
	C436.501862,338.948944 439.560211,341.229889 442.726013,343.350433 
	C455.156708,351.676666 465.520233,350.259888 475.217102,338.974091 
	C478.697693,334.923187 483.680695,333.981110 487.072479,336.732758 
	C490.162781,339.239868 490.310425,344.757507 487.401367,349.026062 
	C478.993927,361.362610 461.106415,367.381744 446.645416,362.647400 
	C438.595520,360.011963 431.588074,355.651337 425.946777,349.284943 
	C423.233765,346.223175 422.771484,342.668823 424.966827,339.155853 
	C426.722961,336.345642 429.314697,335.121979 433.026672,336.621826 
z"/>
<path fill="#000000" opacity="1.000000" stroke="none" 
	d="
M593.690796,336.183105 
	C601.323364,343.425903 609.377686,348.154266 620.033752,344.398254 
	C623.943787,343.020081 626.820740,340.282410 629.556824,337.329193 
	C633.110168,333.493866 637.318176,332.549835 640.533813,334.828125 
	C643.909241,337.219635 644.365845,342.568024 641.576355,347.040680 
	C635.391479,356.957611 619.074402,363.527832 607.297058,360.929657 
	C598.586121,359.007935 591.223755,354.631714 584.783142,348.635406 
	C582.159668,346.192932 580.319885,343.198700 580.797363,339.354431 
	C581.154114,336.482666 582.641479,334.426025 585.408508,333.353027 
	C588.793762,332.040314 591.143799,333.861450 593.690796,336.183105 
z"/>
<path fill="#000000" opacity="1.000000" stroke="none" 
	d="
M248.783707,724.772827 
	C268.209290,706.947937 291.659607,698.350525 316.429932,692.736206 
	C343.864044,686.518005 371.722107,684.938843 399.711609,686.827820 
	C424.563507,688.505066 448.769012,693.458862 471.616302,703.841492 
	C486.497559,710.604004 500.077606,719.200989 510.035919,732.509094 
	C525.202271,752.777039 523.530273,776.822266 505.887146,795.128906 
	C491.979675,809.559448 474.644287,818.113953 455.924622,824.279358 
	C426.186188,834.073792 395.558685,837.665649 364.428009,836.121582 
	C332.132233,834.519836 300.775574,828.375916 271.678650,813.404297 
	C260.763672,807.788025 250.881088,800.788391 243.146240,791.113708 
	C226.902634,770.796448 227.636078,748.045410 245.088318,728.646790 
	C246.201874,727.409058 247.380325,726.229675 248.783707,724.772827 
M398.811432,775.329468 
	C404.730255,773.535645 410.462555,771.310669 415.563660,767.734375 
	C424.094299,761.753540 424.609955,753.461914 416.852173,746.506958 
	C413.725098,743.703430 410.069031,741.727783 406.160461,740.186157 
	C392.349762,734.738770 377.998322,733.777466 363.486511,735.660828 
	C353.370392,736.973755 343.477264,739.564819 335.503479,746.528503 
	C327.981171,753.097961 328.326080,761.067688 336.092529,767.258362 
	C340.592194,770.845032 345.660126,773.248901 351.166199,774.802429 
	C366.719910,779.190796 382.345673,778.958252 398.811432,775.329468 
z"/>
<path fill="#000000" opacity="1.000000" stroke="none" 
	d="
M693.342590,739.323486 
	C705.281433,729.110413 719.318481,726.084900 734.078491,726.163574 
	C744.509827,726.219238 755.053711,726.543030 764.989746,730.638489 
	C771.226990,733.209351 776.730164,736.762939 781.584839,741.496948 
	C791.364014,751.032837 791.847412,771.579163 777.977417,780.987610 
	C766.486023,788.782471 754.043762,793.037659 740.170471,793.410095 
	C729.452576,793.697815 718.902710,793.124207 708.761841,789.196777 
	C702.633911,786.823364 696.921204,783.744446 692.364197,778.961914 
	C681.288025,767.337952 681.632690,751.765198 693.342590,739.323486 
z"/>
<path fill="#000000" opacity="1.000000" stroke="none" 
	d="
M552.053223,702.702148 
	C556.849304,702.872314 559.182739,705.299377 559.653015,709.512573 
	C560.923157,720.894043 562.176697,732.278198 563.314758,743.673462 
	C564.766846,758.213074 566.069946,772.767456 567.503418,787.309021 
	C567.874329,791.071899 570.039978,792.627014 573.906372,792.707642 
	C583.053162,792.898376 588.342651,800.278809 586.099609,809.422791 
	C585.279663,812.765564 583.111084,814.624207 579.575806,814.309143 
	C574.331665,813.841675 570.978821,814.897217 571.075684,821.376221 
	C571.135193,825.354309 568.044312,827.457214 563.883362,827.321106 
	C559.737854,827.185425 556.846619,824.811340 556.900513,820.961060 
	C556.987183,814.764893 553.380798,814.347656 548.831055,814.313721 
	C542.416931,814.265808 541.015808,812.819519 540.633545,806.438416 
	C540.534607,804.787048 540.196106,803.150635 539.979858,801.505737 
	C539.322815,796.507080 541.965088,792.830261 546.993469,792.757385 
	C551.733521,792.688782 553.113953,790.527283 552.689514,786.245422 
	C551.509827,774.345764 550.488525,762.429810 549.238464,750.537781 
	C547.849854,737.328613 546.138672,724.152161 544.861633,710.933167 
	C544.420227,706.363586 546.763550,703.294678 552.053223,702.702148 
z"/>
<path fill="#000000" opacity="1.000000" stroke="none" 
	d="
M589.289185,706.805847 
	C591.414856,703.042480 594.442810,702.093018 598.015076,702.935486 
	C601.525818,703.763489 603.055237,706.363403 603.587708,709.804077 
	C605.461975,721.916504 607.577148,733.994446 609.241394,746.134766 
	C609.735413,749.738098 611.128113,750.922607 614.614624,751.010620 
	C625.986023,751.297546 628.723511,754.565186 628.362732,766.436279 
	C628.243347,770.365967 626.476562,772.238892 622.607361,772.372131 
	C619.823547,772.467896 616.968811,772.004822 613.757019,773.403259 
	C615.441772,783.277283 617.154358,793.196228 618.819763,803.123169 
	C619.723755,808.511658 620.666992,813.898132 621.368042,819.314636 
	C621.900024,823.425476 620.606506,826.637085 615.944763,827.283630 
	C611.142334,827.949768 607.960083,825.764404 607.008545,820.751831 
	C605.090942,810.649353 603.419678,800.500061 601.651978,790.369202 
	C601.309937,788.408691 600.971130,786.447205 600.665405,784.480835 
	C598.952209,773.464050 598.957886,773.442444 587.817200,772.357544 
	C586.250305,772.205017 584.890625,771.855652 583.866577,770.588684 
	C581.859131,768.104919 581.067383,757.522583 582.576111,754.610229 
	C584.062988,751.740051 586.686523,751.295105 589.387024,751.539062 
	C594.201477,751.973999 595.205750,749.501465 594.525330,745.459290 
	C592.681519,734.505066 590.849792,723.548767 588.973633,712.600098 
	C588.659241,710.765869 588.533203,708.972961 589.289185,706.805847 
z"/>
<path fill="#000000" opacity="1.000000" stroke="none" 
	d="
M781.945679,825.364746 
	C775.315613,825.367859 769.176453,825.418640 763.038330,825.359192 
	C757.223450,825.302856 753.743896,821.825439 753.666260,816.145203 
	C753.585327,810.223022 756.748657,806.756897 762.696411,806.669922 
	C771.155945,806.546143 779.619812,806.557190 788.079590,806.673035 
	C793.870667,806.752319 797.362854,810.438538 797.332520,816.078308 
	C797.302551,821.640869 793.724609,825.184265 787.911743,825.359070 
	C786.088379,825.413940 784.262024,825.365417 781.945679,825.364746 
z"/>
<path fill="#000000" opacity="1.000000" stroke="none" 
	d="
M731.863831,809.110840 
	C737.271729,818.257629 733.274353,825.321533 723.083191,825.373169 
	C715.751953,825.410339 708.419800,825.425659 701.088867,825.362305 
	C695.374634,825.312927 691.744812,821.597290 691.770935,815.996216 
	C691.797180,810.370117 695.386963,806.722473 701.194946,806.663391 
	C709.192139,806.581970 717.190918,806.669739 725.188721,806.626648 
	C727.604309,806.613647 729.846924,806.913940 731.863831,809.110840 
z"/>
<path fill="#000000" opacity="1.000000" stroke="none" 
	d="
M385.160492,749.691895 
	C390.158264,757.119385 386.480865,763.199585 376.776337,764.182312 
	C373.733948,764.490417 370.817322,763.712708 368.080902,762.490112 
	C365.262939,761.231140 363.859100,758.865723 363.714325,755.775146 
	C363.568604,752.664612 364.771606,750.155823 367.531006,748.757751 
	C373.389862,745.789246 379.254242,745.317810 385.160492,749.691895 
z"/>
</svg>